<?xml version="1.0" encoding="iso-8859-1"?>
<!-- Generator: Adobe Illustrator 19.1.0, SVG Export Plug-In . SVG Version: 6.00 Build 0)  -->
<svg version="1.1" id="Capa_1" xmlns="http://www.w3.org/2000/svg" xmlns:xlink="http://www.w3.org/1999/xlink" x="0px" y="0px"
	 viewBox="0 0 488.1 488.1" style="enable-background:new 0 0 488.1 488.1;" xml:space="preserve">
<g>
	<g>
		<path d="M327.7,342.8l-4.3-4.3c-0.2-0.2-0.3-0.3-0.5-0.5c-23.8,14.1-51.2,21.7-79.3,21.7c-35.3,0-68.9-11.7-96.2-33.3
			c-7.4,5.1-15,10.8-22.4,16.9c-5.9,4.8-9.3,12.1-9.3,19.7v36.1H244h128.2v-11.9l-37.7-37.7L327.7,342.8z"/>
		<path d="M249.7,122.3H244h-5.7c-26.2,0-47.5,21.3-47.5,47.5v52.7c0,8.3,4.2,15.5,10.6,19.8v45c12.9,6.6,27.3,10.2,42.3,10.2
			c15.2,0,29.8-3.6,42.8-10.4v-44.7c6.4-4.3,10.6-11.5,10.6-19.8v-52.7C297.2,143.5,275.9,122.3,249.7,122.3z"/>
		<path d="M480.3,307.7c-27.4-22.5-56.9-37.4-62.9-40.4c-0.7-0.3-1.1-1-1.1-1.8v-42.6c5.4-3.6,8.9-9.7,8.9-16.6v-44.2
			c0-22-17.8-39.8-39.8-39.8h-4.8h-4.4c14,22.7,22.1,48.7,23.1,75.8c1.2,30.2-6.4,59.8-21.6,85.4c0.2,0.2,0.3,0.3,0.5,0.5l2,2
			l2.3,2.3l6.8,6.8l59.6,59.6h39.2v-30.3C488.1,317.9,485.2,311.8,480.3,307.7z"/>
		<path d="M453.9,387.7L375.2,309l-6.8-6.8l-2.3-2.3l0,0l-2-2l-5.3,5.3l-11.4-11.4c45.2-53.3,42.7-133.3-7.7-183.7
			c-26.5-26.5-61.3-39.8-96-39.8s-69.5,13.3-96,39.8c-53,53-53,139,0,192c26.5,26.5,61.3,39.8,96,39.8c31.2,0,62.4-10.7,87.7-32.1
			l11.4,11.4l-5.3,5.3l0,0l0,0l4.3,4.3l6.8,6.8l78.7,78.7c3.7,3.7,8.5,5.5,13.3,5.5s9.6-1.8,13.3-5.5
			C461.2,407,461.2,395.1,453.9,387.7C453.9,387.8,453.9,387.7,453.9,387.7z M323.7,284.2c-22.1,22.1-51.1,33.1-80,33.1
			c-29,0-57.9-11-80-33.1c-44.2-44.2-44.2-115.8,0-160c22.1-22.1,51.1-33.1,80-33.1c29,0,57.9,11,80,33.1
			C367.9,168.3,367.9,240,323.7,284.2z"/>
		<path d="M111.4,122.3h-3.9h-4.8c-22,0-39.8,17.8-39.8,39.8v44.2c0,6.9,3.5,13,8.9,16.6v42.6c0,0.8-0.4,1.4-1.1,1.8
			c-6,2.9-35.5,17.9-62.9,40.4C2.9,311.8,0,317.9,0,324.3v30.3h97.2c2-10.3,7.4-19.6,15.6-26.3c6.6-5.4,13.3-10.5,19.9-15.2
			C81.6,261.1,74.5,181.9,111.4,122.3z"/>
	</g>
</g>
<g>
</g>
<g>
</g>
<g>
</g>
<g>
</g>
<g>
</g>
<g>
</g>
<g>
</g>
<g>
</g>
<g>
</g>
<g>
</g>
<g>
</g>
<g>
</g>
<g>
</g>
<g>
</g>
<g>
</g>
</svg>
